HIERARCHY
ROOT SpineBase
{
  OFFSET 0.000000 0.000000 0.000000
  CHANNELS 6 Xposition Yposition Zposition Zrotation Xrotation Yrotation
  JOINT SpineMid
  {
    OFFSET 0.000000 30.051833 0.000000
    CHANNELS 3 Zrotation Xrotation Yrotation
    JOINT SpineShoulder
    {
      OFFSET 0.005613 22.363082 -0.782071
      CHANNELS 3 Zrotation Xrotation Yrotation
      JOINT Neck
      {
        OFFSET 0.022382 7.428489 -0.585164
        CHANNELS 3 Zrotation Xrotation Yrotation
        JOINT Head
        {
          OFFSET -5.178662 13.251364 -0.736338
          CHANNELS 3 Zrotation Xrotation Yrotation
          End Site
          {
            OFFSET 0 0 0
          }
        }
      }
      JOINT ShoulderLeft
      {
        OFFSET -15.514794 -5.414677 6.082491
        CHANNELS 3 Zrotation Xrotation Yrotation
        JOINT ElbowLeft
        {
          OFFSET -0.866938 -27.333428 1.157191
          CHANNELS 3 Zrotation Xrotation Yrotation
          JOINT WristLeft
          {
            OFFSET 3.355129 -19.023980 -7.199615
            CHANNELS 3 Zrotation Xrotation Yrotation
            JOINT HandLeft
            {
              OFFSET -2.511455 -7.209778 -1.287926
              CHANNELS 3 Zrotation Xrotation Yrotation
              JOINT HandTipLeft
              {
                OFFSET -2.352816 -6.771761 -1.336431
                CHANNELS 3 Zrotation Xrotation Yrotation
                End Site
                {
                  OFFSET 0 0 0
                }
              }
              JOINT ThumbLeft
              {
                OFFSET -3.717861 2.377684 -1.169369
                CHANNELS 3 Zrotation Xrotation Yrotation
                End Site
                {
                  OFFSET 0 0 0
                }
              }
            }
          }
        }
      }
      JOINT ShoulderRight
      {
        OFFSET 14.202316 -1.936157 -8.567878
        CHANNELS 3 Zrotation Xrotation Yrotation
        JOINT ElbowRight
        {
          OFFSET 6.874665 -25.396080 -1.657141
          CHANNELS 3 Zrotation Xrotation Yrotation
          JOINT WristRight
          {
            OFFSET -1.083553 -20.688205 -5.610665
            CHANNELS 3 Zrotation Xrotation Yrotation
            JOINT HandRight
            {
              OFFSET -0.861550 -4.775419 -0.229185
              CHANNELS 3 Zrotation Xrotation Yrotation
              JOINT HandTipRight
              {
                OFFSET -0.823530 -6.004364 -1.173264
                CHANNELS 3 Zrotation Xrotation Yrotation
                End Site
                {
                  OFFSET 0 0 0
                }
              }
              JOINT ThumbRight
              {
                OFFSET 3.552519 0.070652 -0.493267
                CHANNELS 3 Zrotation Xrotation Yrotation
                End Site
                {
                  OFFSET 0 0 0
                }
              }
            }
          }
        }
      }
    }
  }
  JOINT HipLeft
  {
    OFFSET -6.026374 0.527964 -0.746826
    CHANNELS 3 Zrotation Xrotation Yrotation
    JOINT KneeLeft
    {
      OFFSET -2.616488 -25.834254 0.791318
      CHANNELS 3 Zrotation Xrotation Yrotation
      JOINT AnkleLeft
      {
        OFFSET 14.977320 -33.511267 5.521131
        CHANNELS 3 Zrotation Xrotation Yrotation
        JOINT FootLeft
        {
          OFFSET 0.054753 -7.955537 -4.568103
          CHANNELS 3 Zrotation Xrotation Yrotation
          End Site
          {
            OFFSET 0 0 0
          }
        }
      }
    }
  }
  JOINT HipRight
  {
    OFFSET 6.648492 1.580945 -5.923369
    CHANNELS 3 Zrotation Xrotation Yrotation
    JOINT KneeRight
    {
      OFFSET 9.404879 -27.333108 1.480325
      CHANNELS 3 Zrotation Xrotation Yrotation
      JOINT AnkleRight
      {
        OFFSET 4.955440 -31.111698 3.978807
        CHANNELS 3 Zrotation Xrotation Yrotation
        JOINT FootRight
        {
          OFFSET -4.047228 -3.286842 -12.582400
          CHANNELS 3 Zrotation Xrotation Yrotation
          End Site
          {
            OFFSET 0 0 0
          }
        }
      }
    }
  }
}
MOTION
Frames: 14
Frame Time: 0.033333
-26.993409 66.142676 334.684110 8.974475 0.815019 32.771604 0.030628 0.082717 -32.528812 0.000552 0.205049 0.374406 15.844156 -4.192725 0.531538 0.000000 0.000000 0.000000 -4.661067 22.953520 -2.239456 -17.129937 33.888998 15.237751 30.151632 -12.014068 -16.364817 8.249612 -10.077124 8.274570 0.000000 0.000000 0.000000 0.000000 0.000000 0.000000 -9.251290 19.055105 4.721465 -61.981789 -5.523982 -3.016786 7.452677 11.541916 -10.705795 -8.173144 5.696551 11.895274 0.000000 0.000000 0.000000 0.000000 0.000000 0.000000 0.742602 -5.591476 -31.681812 -29.035974 6.728804 -0.234692 -12.164135 32.915396 22.279283 0.000000 0.000000 0.000000 -11.641665 3.983883 -33.176457 -0.370825 0.521978 0.234101 2.709123 0.092420 5.083642 0.000000 0.000000 0.000000
-26.964308 66.106173 334.645095 9.063873 0.879339 32.967889 -0.006894 0.087366 -32.727904 -0.025069 0.200703 0.374787 16.080425 -4.156629 0.582276 0.000000 0.000000 0.000000 -4.363536 23.905326 -2.369695 -18.187406 32.503464 15.208983 31.534529 -15.573022 -13.915558 8.203366 -6.016339 5.789648 0.000000 0.000000 0.000000 0.000000 0.000000 0.000000 -8.890819 17.911865 4.326026 -61.171584 -5.081389 -1.885871 6.937213 12.529183 -10.286985 -6.191086 7.754335 12.380878 0.000000 0.000000 0.000000 0.000000 0.000000 0.000000 0.561383 -5.582406 -31.882495 -28.877449 6.647587 -0.281675 -12.351006 32.963360 22.375494 0.000000 0.000000 0.000000 -12.036204 3.817163 -33.479629 -0.196092 0.912953 0.379445 3.347916 -2.346474 6.013067 0.000000 0.000000 0.000000
-27.031463 66.049009 334.603296 9.031352 0.951178 33.094346 -0.007556 0.069535 -32.859344 -0.019976 0.188834 0.375045 16.404118 -4.023944 0.656343 0.000000 0.000000 0.000000 -3.938330 25.028539 -2.529522 -18.329134 29.989884 14.397426 30.800054 -16.238577 -13.616996 10.027028 -5.073572 5.665266 0.000000 0.000000 0.000000 0.000000 0.000000 0.000000 -8.359568 17.071725 3.999728 -60.527315 -4.723580 -1.105133 6.462502 14.797148 -9.500377 -1.587459 9.780770 12.488221 0.000000 0.000000 0.000000 0.000000 0.000000 0.000000 0.681747 -5.846509 -31.976942 -29.010733 6.695177 -0.269500 -12.479798 32.992158 22.410863 0.000000 0.000000 0.000000 -12.099680 3.533190 -33.698686 -0.300105 1.130752 0.459486 4.838356 -6.677959 7.252148 0.000000 0.000000 0.000000
-27.249675 65.972182 334.572459 8.755123 1.002589 33.143194 0.104081 -0.036474 -32.910636 0.031863 0.175406 0.375239 16.788639 -3.774510 0.735413 0.000000 0.000000 0.000000 -3.470584 26.083257 -2.682842 -18.075737 27.704750 13.499276 28.883923 -17.538141 -13.385749 15.485618 -2.333938 5.316768 0.000000 0.000000 0.000000 0.000000 0.000000 0.000000 -7.517371 16.571906 3.716676 -60.387889 -4.419569 -0.629428 6.964173 15.485291 -9.293675 2.037128 10.507813 12.001826 0.000000 0.000000 0.000000 0.000000 0.000000 0.000000 1.309681 -6.398499 -31.956862 -29.540291 6.881842 -0.172099 -12.499000 32.915329 22.339844 0.000000 0.000000 0.000000 -11.665285 2.979750 -33.852731 -0.771304 1.306454 0.510834 7.305049 -12.986949 9.124882 0.000000 0.000000 0.000000
-27.392172 65.906631 334.548708 8.610195 1.034889 33.083184 0.107130 -0.057242 -32.854993 0.052985 0.137476 0.374480 17.266828 -3.511380 0.807375 0.000000 0.000000 0.000000 -3.000513 27.008461 -2.820758 -17.285081 25.510675 12.467632 25.416532 -17.401222 -14.344252 20.896650 -2.179418 6.397683 0.000000 0.000000 0.000000 0.000000 0.000000 0.000000 -7.072296 16.587758 3.657333 -59.984459 -4.054562 -0.525418 7.690858 15.838450 -9.240998 6.408122 10.900842 11.317651 0.000000 0.000000 0.000000 0.000000 0.000000 0.000000 1.654492 -6.774728 -31.841560 -29.808897 7.103612 -0.058364 -12.543323 32.828615 22.238112 0.000000 0.000000 0.000000 -11.568219 2.628758 -33.882212 -1.049212 1.553561 0.580426 10.961423 -20.926519 11.254205 0.000000 0.000000 0.000000
-27.467243 65.858624 334.535837 8.594556 1.048829 32.925068 0.046140 -0.004575 -32.702714 0.064142 0.093257 0.374804 17.577346 -3.334413 0.851019 0.000000 0.000000 0.000000 -2.639300 27.678894 -2.927509 -15.955535 23.697771 11.434917 19.544313 -16.546720 -16.316892 27.520078 -1.633361 7.377410 0.000000 0.000000 0.000000 0.000000 0.000000 0.000000 -6.604235 16.767300 3.627266 -59.700155 -3.624991 -0.531538 7.407189 15.317536 -9.340059 10.281412 12.444046 11.115247 0.000000 0.000000 0.000000 0.000000 0.000000 0.000000 1.742649 -6.999727 -31.642102 -30.123024 7.425210 0.090508 -12.357056 32.669874 22.119129 0.000000 0.000000 0.000000 -11.383465 2.466661 -33.729795 -1.462109 1.528128 0.551260 15.630773 -29.418834 13.471550 0.000000 0.000000 0.000000
-27.458095 65.836348 334.520756 8.695631 1.060702 32.721781 -0.083829 0.076371 -32.504285 0.073275 0.054928 0.376352 17.721260 -3.154059 0.874983 0.000000 0.000000 0.000000 -2.452288 28.010042 -2.981914 -14.018103 21.840217 10.307522 9.624843 -10.099562 -21.215543 29.522106 -8.492767 12.487407 0.000000 0.000000 0.000000 0.000000 0.000000 0.000000 -6.802888 16.946424 3.720769 -58.933304 -2.728185 -0.265903 7.448207 13.571658 -9.835493 12.139922 13.820232 10.897012 0.000000 0.000000 0.000000 0.000000 0.000000 0.000000 1.565919 -7.081220 -31.415677 -30.137307 7.780630 0.261274 -12.252288 32.491616 21.953342 0.000000 0.000000 0.000000 -11.173325 2.659496 -33.413077 -1.862160 0.961084 0.348030 20.413843 -36.610634 15.201192 0.000000 0.000000 0.000000
-27.385455 65.825182 334.503682 8.879862 1.070228 32.584437 -0.249576 0.175212 -32.370761 0.070698 0.021826 0.378344 17.772844 -3.105321 0.871473 0.000000 0.000000 0.000000 -2.525867 28.024065 -2.963299 -12.524958 21.145190 9.732964 5.929516 -4.814735 -23.518969 29.577004 -14.635018 16.322735 0.000000 0.000000 0.000000 0.000000 0.000000 0.000000 -7.133840 17.322217 3.884360 -58.411739 -1.838244 -0.133629 7.688420 11.402997 -10.464646 11.802973 13.354016 10.552397 0.000000 0.000000 0.000000 0.000000 0.000000 0.000000 1.185437 -7.018255 -31.277188 -30.095769 8.076379 0.393019 -12.056945 32.339744 21.835433 0.000000 0.000000 0.000000 -11.367054 2.991394 -33.190358 -1.888648 0.577424 0.215404 26.499526 -45.050070 16.495708 0.000000 0.000000 0.000000
-27.267989 65.825119 334.485974 9.100497 1.070239 32.457142 -0.422502 0.276819 -32.245564 0.056190 -0.016029 0.380941 17.863865 -3.080864 0.860236 0.000000 0.000000 0.000000 -2.547377 28.054093 -2.960732 -11.290982 21.168483 9.370691 4.028831 -4.015586 -23.997163 28.621550 -16.737610 16.856952 0.000000 0.000000 0.000000 0.000000 0.000000 0.000000 -6.894670 17.536314 3.876984 -58.342070 -0.451487 0.349689 7.205249 8.623556 -11.246933 13.689863 14.392986 10.244665 0.000000 0.000000 0.000000 0.000000 0.000000 0.000000 0.668268 -6.832774 -31.166680 -29.626083 8.275961 0.486867 -12.116416 32.269094 21.702385 0.000000 0.000000 0.000000 -11.659657 3.435162 -32.959768 -1.632774 0.188515 0.095886 25.472073 -44.736586 13.078902 0.000000 0.000000 0.000000
-27.111241 65.830432 334.469261 9.365493 1.079201 32.324809 -0.596306 0.379818 -32.114838 0.029344 -0.039926 0.383233 17.843700 -3.201429 0.831287 0.000000 0.000000 0.000000 -2.533273 27.880676 -2.956729 -10.025187 21.969796 9.095567 3.879929 -7.069236 -22.954074 23.329863 -17.256659 14.608096 0.000000 0.000000 0.000000 0.000000 0.000000 0.000000 -6.806284 17.666344 3.875785 -58.156554 1.131489 0.972946 7.030698 5.381152 -12.164062 14.343317 15.768572 10.012973 0.000000 0.000000 0.000000 0.000000 0.000000 0.000000 0.027202 -6.547304 -31.064902 -28.848301 8.370961 0.531798 -12.391547 32.255175 21.603671 0.000000 0.000000 0.000000 -12.075468 3.929976 -32.721785 -1.213336 -0.212121 -0.011223 18.936380 -35.429289 6.555731 0.000000 0.000000 0.000000
-26.926322 65.841830 334.452522 9.645855 1.081851 32.245762 -0.741889 0.470634 -32.035412 -0.001974 -0.050582 0.386133 17.814193 -3.312683 0.809079 0.000000 0.000000 0.000000 -2.483694 27.613699 -2.963439 -11.813572 22.903231 9.752182 14.429272 -7.381106 -20.750033 17.331324 -17.942907 14.436751 0.000000 0.000000 0.000000 0.000000 0.000000 0.000000 -6.657786 17.710005 3.829164 -57.793003 2.582594 1.537051 5.693702 2.799034 -12.950551 16.024041 17.102405 9.822974 0.000000 0.000000 0.000000 0.000000 0.000000 0.000000 -0.637739 -6.228324 -31.017195 -27.943113 8.384010 0.533601 -12.792126 32.295967 21.543121 0.000000 0.000000 0.000000 -12.596556 4.437200 -32.548851 -0.637400 -0.518216 -0.073709 15.056637 -27.716638 4.803496 0.000000 0.000000 0.000000
-26.731406 65.868214 334.436197 9.910139 1.071796 32.298923 -0.837227 0.535734 -32.085385 -0.043205 -0.046311 0.388782 17.769859 -3.447705 0.785185 0.000000 0.000000 0.000000 -2.459136 27.139539 -2.953677 -12.696822 24.908180 10.355023 21.373398 -12.635876 -16.738975 14.032297 -12.353240 10.913294 0.000000 0.000000 0.000000 0.000000 0.000000 0.000000 -6.795640 17.791264 3.846042 -57.646498 3.786769 2.022868 5.860494 -0.395178 -13.832486 15.192953 19.332401 9.845300 0.000000 0.000000 0.000000 0.000000 0.000000 0.000000 -1.251144 -5.872238 -31.104357 -26.987259 8.305921 0.498932 -13.248956 32.383970 21.489813 0.000000 0.000000 0.000000 -13.193337 4.910230 -32.535683 0.055959 -0.680648 -0.075508 11.263678 -19.194061 3.829326 0.000000 0.000000 0.000000
-26.716030 65.850563 334.419612 9.910174 1.077702 32.254966 -0.797857 0.505911 -32.039892 -0.040896 -0.032337 0.390041 17.720989 -3.643331 0.761894 0.000000 0.000000 0.000000 -2.325163 26.580964 -2.940949 -13.410117 25.921114 10.665349 27.582240 -12.619501 -14.755247 14.140388 -9.913692 10.464838 0.000000 0.000000 0.000000 0.000000 0.000000 0.000000 -6.316365 17.716573 3.710952 -57.842379 4.391085 2.277669 5.879062 -1.875998 -14.173934 16.486396 20.793753 9.406770 0.000000 0.000000 0.000000 0.000000 0.000000 0.000000 -1.322393 -5.927785 -31.050753 -26.482218 8.302542 0.494242 -13.693233 32.467556 21.457083 0.000000 0.000000 0.000000 -13.285485 4.934266 -32.494840 0.400785 -0.679475 -0.039994 8.002363 -11.636496 3.887217 0.000000 0.000000 0.000000
-26.830520 65.807688 334.411015 9.705070 1.080979 32.178362 -0.641221 0.391911 -31.960581 -0.016782 -0.008803 0.389768 17.765640 -3.856568 0.743897 0.000000 0.000000 0.000000 -2.056036 26.158223 -2.954069 -14.305540 26.890168 11.006832 35.016687 -12.237098 -12.373760 13.756494 -7.436721 9.685566 0.000000 0.000000 0.000000 0.000000 0.000000 0.000000 -5.712897 17.620383 3.556738 -58.197084 3.532976 1.878241 5.928973 0.385559 -13.469012 16.966240 18.888217 9.259432 0.000000 0.000000 0.000000 0.000000 0.000000 0.000000 -0.979444 -6.221793 -30.942863 -26.305627 8.287085 0.485223 -14.127070 32.547269 21.470449 0.000000 0.000000 0.000000 -13.007251 4.615742 -32.482941 0.424961 -0.506354 0.030172 5.356406 -5.726671 4.619553 0.000000 0.000000 0.000000
